<?xml version="1.0" standalone="no"?>
<!DOCTYPE svg PUBLIC "-//W3C//DTD SVG 20010904//EN"
 "http://www.w3.org/TR/2001/REC-SVG-20010904/DTD/svg10.dtd">
<svg version="1.0" xmlns="http://www.w3.org/2000/svg"
 width="549.000000pt" height="549.000000pt" viewBox="0 0 549.000000 549.000000"
 preserveAspectRatio="xMidYMid meet">

<g transform="translate(0.000000,549.000000) scale(0.100000,-0.100000)"
fill="#ffffff" stroke="none">
<path d="M1336 4669 c-23 -27 -26 -39 -26 -105 0 -84 0 -85 -86 -59 -72 21
-253 55 -296 55 -31 0 -40 -5 -58 -34 -11 -19 -27 -72 -35 -118 -23 -127 -36
-188 -41 -188 -2 0 -41 19 -87 42 -126 63 -206 54 -263 -31 l-25 -39 1 -1178
c0 -649 5 -1196 9 -1216 15 -64 57 -123 113 -160 63 -41 308 -176 503 -278 77
-40 192 -101 255 -135 532 -289 718 -384 789 -406 26 -8 55 -27 74 -48 87 -98
142 -143 230 -186 224 -111 497 -109 733 5 66 32 95 54 153 116 39 42 71 80
71 84 0 5 114 65 253 134 269 133 605 306 857 440 85 46 232 122 326 170 191
97 241 134 276 204 l23 47 -3 1210 c-3 1173 -4 1210 -22 1241 -43 69 -118 77
-262 28 -109 -37 -119 -33 -133 51 -17 106 -49 228 -65 247 -25 31 -87 25
-219 -20 -72 -25 -114 -35 -116 -28 -2 6 -6 42 -8 80 -4 49 -10 74 -23 87 -19
18 -20 18 -69 -5 -28 -12 -78 -45 -112 -72 -198 -157 -183 -147 -198 -127 -8
10 -17 34 -20 53 -19 116 -30 145 -57 158 -36 17 -68 3 -180 -80 -200 -148
-464 -402 -560 -539 -28 -41 -66 -92 -84 -114 -38 -48 -136 -224 -153 -278
-24 -71 -55 -60 -91 32 -67 172 -354 517 -580 697 -34 27 -110 91 -168 142
-59 51 -122 101 -139 110 -32 15 -34 15 -58 -8 -16 -15 -34 -52 -47 -97 -12
-40 -26 -73 -33 -73 -18 0 -94 53 -176 124 -65 55 -126 96 -143 96 -2 0 -16
-14 -30 -31z m2364 -159 c0 -34 39 -100 66 -112 13 -6 23 -15 22 -19 -4 -11
-88 -69 -203 -141 -193 -120 -321 -205 -380 -253 -33 -26 -80 -64 -105 -84
l-45 -36 23 38 c72 123 229 291 429 458 78 65 150 129 160 143 22 31 33 33 33
6z m430 9 c0 -35 -54 -76 -122 -93 -43 -10 -34 8 30 58 55 44 92 58 92 35z
m-2085 -214 c248 -217 345 -318 395 -413 10 -20 10 -23 -3 -15 -17 10 -227
158 -381 269 -62 45 -147 104 -189 132 -41 29 -79 56 -82 62 -4 6 8 42 27 80
l33 69 55 -53 c30 -29 96 -88 145 -131z m-503 129 c38 -25 68 -48 65 -50 -4
-4 -156 52 -165 60 -6 6 11 36 20 36 6 0 42 -21 80 -46z m-311 -35 c149 -47
488 -205 649 -304 52 -31 140 -85 195 -118 216 -129 446 -311 523 -412 25 -33
65 -102 89 -153 24 -51 50 -95 59 -99 24 -9 50 24 78 100 37 102 107 191 238
303 181 155 622 432 887 557 134 63 387 154 451 163 42 6 51 4 56 -11 12 -30
-18 -65 -76 -90 -230 -96 -375 -168 -669 -331 -372 -207 -441 -251 -554 -354
-80 -75 -110 -110 -121 -147 -10 -33 16 -30 67 6 117 82 429 263 707 411 96
51 203 108 238 127 35 18 114 56 175 84 114 50 247 117 303 150 l31 19 21 -57
c18 -48 19 -60 8 -71 -14 -15 -183 -103 -561 -293 -132 -67 -276 -141 -320
-164 -44 -24 -190 -100 -325 -170 -343 -177 -334 -167 -335 -399 l-1 -159 -39
-34 c-26 -22 -68 -43 -122 -60 -73 -22 -96 -25 -182 -21 -124 6 -178 29 -215
93 -23 39 -33 75 -22 75 3 0 20 -9 38 -20 95 -56 321 -68 423 -22 60 27 85 49
79 67 -5 11 -13 11 -47 -2 -63 -23 -237 -28 -325 -9 -78 16 -162 53 -162 70
-6 120 -29 213 -62 243 -45 42 -327 196 -763 418 -223 113 -460 237 -535 280
-41 23 -103 56 -136 73 l-61 31 18 53 c10 29 18 64 19 77 l0 24 23 -20 c21
-19 73 -47 387 -211 69 -35 163 -86 210 -112 47 -26 168 -91 270 -145 320
-169 459 -253 587 -356 68 -54 94 -49 61 12 -64 116 -278 284 -548 429 -63 34
-119 65 -125 70 -21 16 -262 143 -503 265 -139 70 -255 131 -257 135 -5 8 23
50 34 50 5 0 69 -19 142 -41z m-386 -344 c105 -52 341 -172 525 -268 184 -95
450 -232 590 -305 171 -88 267 -143 290 -167 l35 -36 0 -127 c0 -153 8 -173
109 -279 48 -51 88 -83 134 -105 61 -30 73 -33 193 -36 108 -4 138 -1 196 16
72 22 160 85 215 152 42 54 70 143 68 220 -1 36 -3 87 -4 115 l-1 50 55 37
c70 46 250 142 710 378 201 103 430 222 510 265 220 117 401 195 455 195 13 0
33 -9 46 -19 21 -17 22 -21 9 -34 -8 -8 -121 -70 -250 -137 -405 -211 -751
-390 -757 -390 -3 0 -82 -41 -177 -92 -94 -51 -238 -127 -321 -169 l-150 -76
3 -89 c9 -234 -82 -396 -278 -492 -211 -105 -459 -93 -646 29 -166 108 -244
257 -244 466 0 69 -1 73 -32 96 -37 28 -379 210 -738 394 -377 193 -720 373
-785 412 -67 40 -81 70 -43 89 40 20 88 4 283 -93z m4051 -627 c4 -431 -5
-701 -23 -719 -9 -9 -18 -4 -37 17 -53 60 -55 77 -59 516 -2 224 -7 411 -10
415 -4 3 -26 -4 -50 -17 -135 -77 -313 -171 -462 -245 -93 -46 -228 -115 -300
-152 -71 -38 -163 -83 -202 -101 l-73 -32 0 -56 c0 -48 -4 -58 -27 -77 -14
-12 -43 -39 -62 -59 -71 -74 -90 -40 -71 131 l12 108 222 110 c121 60 426 214
676 340 250 127 457 229 459 227 2 -2 5 -185 7 -406z m-3975 258 c330 -166
711 -362 854 -438 85 -45 105 -60 132 -103 18 -27 44 -59 57 -70 l25 -20 6
-310 c3 -170 2 -615 -2 -988 -5 -558 -9 -677 -20 -677 -13 0 -276 138 -323
170 -14 9 -105 58 -202 108 -321 165 -672 355 -754 408 l-82 52 -3 874 c-5
1001 -3 1138 16 1138 7 0 140 -65 296 -144z m3574 -740 c147 -39 197 -112 288
-416 74 -247 97 -371 104 -556 l6 -161 -29 -20 c-16 -11 -213 -116 -439 -233
-638 -331 -770 -400 -847 -447 -31 -19 -61 -32 -67 -28 -8 4 -11 123 -11 372
l0 366 46 -6 c25 -2 51 -10 57 -16 7 -7 13 -99 16 -265 4 -140 9 -258 13 -262
10 -9 49 8 113 51 28 18 156 87 285 153 222 114 674 353 715 378 15 9 21 29
26 90 5 54 14 86 29 106 28 38 15 35 -61 -12 -35 -23 -106 -62 -157 -87 -101
-50 -124 -50 -130 -2 -2 19 7 30 43 53 55 34 115 89 115 105 0 21 -35 11 -103
-28 -171 -101 -381 -126 -566 -69 -72 22 -156 62 -166 78 -11 18 -45 11 -45
-9 0 -17 36 -53 109 -109 88 -67 -16 -87 -135 -27 -97 49 -201 129 -220 169
-15 30 -15 38 0 88 8 30 27 113 42 184 45 223 110 403 167 462 42 44 117 82
177 89 101 12 135 -23 53 -53 -92 -33 -132 -55 -167 -95 -59 -64 -44 -84 28
-38 26 16 78 45 116 64 38 19 74 44 80 55 10 18 21 20 125 20 71 0 130 -5 157
-14 24 -8 70 -22 103 -31 63 -18 135 -52 197 -93 21 -14 41 -22 45 -18 4 3 -7
25 -23 49 -38 54 -124 99 -234 123 -83 17 -83 18 -60 36 27 22 130 24 205 4z
m-2271 -300 c58 -99 217 -204 366 -242 91 -23 270 -16 360 15 138 47 208 89
298 176 47 46 88 82 91 80 2 -3 6 -26 9 -53 6 -65 -20 -114 -100 -187 -125
-113 -312 -178 -514 -176 -127 0 -176 9 -283 52 -197 78 -330 245 -277 347 9
18 18 32 20 32 2 0 16 -20 30 -44z m78 -401 c26 -14 51 -33 56 -42 6 -11 6
-117 1 -268 -4 -137 -6 -284 -2 -326 5 -62 3 -81 -11 -100 -9 -13 -16 -37 -16
-54 0 -42 45 -129 82 -160 75 -63 221 -114 327 -115 96 0 264 59 342 121 22
17 49 50 61 73 21 39 21 54 22 396 1 243 5 363 13 381 10 23 88 67 99 56 5 -5
28 -642 28 -757 0 -69 -3 -79 -36 -131 -42 -64 -143 -161 -196 -188 -134 -68
-279 -96 -403 -80 -104 14 -158 34 -254 94 -88 55 -149 121 -194 212 l-33 66
6 121 c3 67 9 264 12 439 l7 318 21 -16 c11 -8 42 -26 68 -40z m-64 -1143 c57
-83 166 -182 242 -219 94 -45 159 -56 291 -51 95 4 128 10 197 36 119 44 192
93 268 177 36 41 70 75 75 75 18 0 9 -103 -12 -146 -47 -98 -205 -208 -354
-249 -142 -39 -360 -25 -482 30 -109 49 -224 149 -266 230 -27 52 -29 175 -3
175 3 0 23 -26 44 -58z"/>
<path d="M725 2770 l0 -888 70 -45 c82 -53 168 -100 570 -312 165 -86 325
-173 355 -193 60 -39 149 -92 154 -92 2 0 6 393 8 873 l6 872 -44 41 c-31 29
-44 49 -44 68 0 22 -7 30 -32 39 -18 7 -69 30 -113 53 -44 23 -235 120 -425
217 -190 96 -367 186 -395 200 -27 14 -63 32 -80 40 l-30 15 0 -888z"/>
<path d="M3936 2440 c-61 -19 -96 -76 -96 -159 0 -43 4 -53 30 -75 46 -38 94
-48 141 -29 53 21 79 66 79 134 0 71 -26 114 -77 128 -43 12 -38 12 -77 1z"/>
<path d="M4280 2413 c-26 -23 -32 -38 -37 -84 -17 -165 110 -227 222 -109 25
26 30 39 28 75 -3 87 -59 145 -140 145 -32 0 -50 -7 -73 -27z"/>
</g>
</svg>
